<?xml version="1.0" encoding="UTF-8"?>
<svg version="1.1" xmlns="http://www.w3.org/2000/svg" width="200" height="200">
<path d="M0 0 C66 0 132 0 200 0 C200 66 200 132 200 200 C134 200 68 200 0 200 C0 134 0 68 0 0 Z " fill="#FDFDFE" transform="translate(0,0)"/>
<path d="M0 0 C1.00675781 0.00563965 2.01351562 0.0112793 3.05078125 0.01708984 C22.30538197 0.32597083 39.20246716 4.98416329 55 16.3125 C56.41732422 17.29089844 56.41732422 17.29089844 57.86328125 18.2890625 C65.47923308 23.86906681 65.47923308 23.86906681 66.3125 28.125 C66 31.3125 66 31.3125 65 33.25 C61.90375397 34.8948807 59.45585464 34.6123731 56 34.3125 C53.40234375 32.58984375 53.40234375 32.58984375 50.9375 30.25 C35.04585171 16.49595114 14.86992935 11.84064775 -5.71337891 13.11181641 C-10.72324584 13.55150364 -15.27908772 14.61269631 -20 16.3125 C-20.96679688 16.64121094 -21.93359375 16.96992188 -22.9296875 17.30859375 C-31.16691143 20.40022715 -38.04104952 25.04527861 -45 30.3125 C-45.76441406 30.89 -46.52882812 31.4675 -47.31640625 32.0625 C-60.90087168 43.12147773 -69.74294038 61.06104099 -72 78.3125 C-72.92192444 89.29296796 -72.52873956 99.8130536 -69 110.3125 C-68.55914062 111.93285156 -68.55914062 111.93285156 -68.109375 113.5859375 C-64.9293877 124.14634309 -59.03132849 131.96367809 -52 140.3125 C-50.86691406 141.66408203 -50.86691406 141.66408203 -49.7109375 143.04296875 C-39.74138514 153.88999107 -22.8971764 162.45431647 -8.12988281 163.51953125 C13.75349061 164.17256322 33.1686564 162.01296476 50.51953125 147.44140625 C52 146.3125 52 146.3125 55 145.3125 C55 144.6525 55 143.9925 55 143.3125 C55.66 143.3125 56.32 143.3125 57 143.3125 C57 142.6525 57 141.9925 57 141.3125 C60.25 140.5625 60.25 140.5625 64 140.3125 C66.85570327 142.21630218 67.79182506 143.41040859 68.5625 146.75 C67.7579058 150.41537356 65.83018537 151.9540122 63 154.3125 C62.34 154.3125 61.68 154.3125 61 154.3125 C60.67 155.3025 60.34 156.2925 60 157.3125 C54.01310108 162.41648251 47.09653395 166.02302073 40 169.3125 C38.97712891 169.83457031 38.97712891 169.83457031 37.93359375 170.3671875 C19.7591581 179.26472905 -2.22640171 180.16415829 -21.50390625 174.52734375 C-26.78582633 172.69195029 -31.90346539 170.60711129 -37 168.3125 C-38.66348312 167.63792892 -40.32921335 166.96877295 -42 166.3125 C-42 165.6525 -42 164.9925 -42 164.3125 C-43.09248047 163.92384766 -43.09248047 163.92384766 -44.20703125 163.52734375 C-56.38206824 158.23162836 -65.89210056 145.79226344 -72.52734375 134.72265625 C-73.90431588 132.34055969 -73.90431588 132.34055969 -75.5 130.5 C-77.68454031 127.31421205 -78.80401919 123.8838231 -80.0625 120.25 C-80.31837891 119.54939453 -80.57425781 118.84878906 -80.83789062 118.12695312 C-84.22074757 108.5001597 -85.35008506 99.0434709 -85.25 88.875 C-85.24250732 87.8651001 -85.23501465 86.8552002 -85.22729492 85.81469727 C-84.87306914 61.29000414 -75.24742992 41.32755437 -58 24.3125 C-57.34515625 23.65894531 -56.6903125 23.00539063 -56.015625 22.33203125 C-40.76174421 8.08855709 -20.82763797 -0.1229702 0 0 Z " fill="#84E4C6" transform="translate(97,11.6875)"/>
<path d="M0 0 C1.41732422 0.97839844 1.41732422 0.97839844 2.86328125 1.9765625 C10.47923308 7.55656681 10.47923308 7.55656681 11.3125 11.8125 C11 15 11 15 10 16.9375 C6.90375397 18.5823807 4.45585464 18.2998731 1 18 C-1.59765625 16.27734375 -1.59765625 16.27734375 -4.0625 13.9375 C-19.95414829 0.18345114 -40.13007065 -4.47185225 -60.71337891 -3.20068359 C-65.72324584 -2.76099636 -70.27908772 -1.69980369 -75 0 C-75.96679688 0.32871094 -76.93359375 0.65742188 -77.9296875 0.99609375 C-86.16691143 4.08772715 -93.04104952 8.73277861 -100 14 C-100.76441406 14.5775 -101.52882812 15.155 -102.31640625 15.75 C-114.0575514 25.30834908 -121.20694752 39.90278682 -126 54 C-126.66 53.34 -127.32 52.68 -128 52 C-127.835 51.195625 -127.67 50.39125 -127.5 49.5625 C-126.64354576 46.77225382 -126.64354576 46.77225382 -129 44 C-132.54518884 45.39759905 -132.54518884 45.39759905 -136 47 C-134.79214494 33.89477255 -126.53976813 22.5696103 -118 13 C-117.27425781 12.18015625 -116.54851562 11.3603125 -115.80078125 10.515625 C-106.1766925 0.27114044 -94.32972498 -7.51124498 -81 -12 C-79.92105469 -12.39058594 -78.84210938 -12.78117188 -77.73046875 -13.18359375 C-51.93422639 -21.40312411 -21.75978611 -15.60384057 0 0 Z " fill="#1A2BBD" transform="translate(152,28)"/>
<path d="M0 0 C3.5625 0.3125 3.5625 0.3125 5.5 1.5 C7.05045199 4.14488869 7.18491312 5.26959142 6.5625 8.3125 C5.20770443 10.13167519 3.75181101 11.74814427 2.16796875 13.37109375 C-1.97008373 18.3750161 -2.89924208 22.96075698 -2.75 29.3125 C-2.75322266 29.99828125 -2.75644531 30.6840625 -2.75976562 31.390625 C-2.66659816 40.26694393 0.60243231 45.99194434 6.5625 52.3125 C13.5201027 57.61767206 21.08351371 58.11139946 29.5625 57.3125 C32.76486074 56.30097587 35.60803021 54.89223691 38.5625 53.3125 C40.22444738 52.63415413 41.88848903 51.96050425 43.5625 51.3125 C43.5625 50.6525 43.5625 49.9925 43.5625 49.3125 C46.55742576 48.63183506 48.86337749 48.14244317 51.875 48.875 C53.5625 50.3125 53.5625 50.3125 54.375 53.3125 C54.5625 56.3125 54.5625 56.3125 53.5625 58.3125 C52.9025 58.3125 52.2425 58.3125 51.5625 58.3125 C51.31628906 58.9209375 51.07007812 59.529375 50.81640625 60.15625 C48.56249999 64.03212619 44.46165396 65.36292302 40.5625 67.3125 C39.86898437 67.71082031 39.17546875 68.10914063 38.4609375 68.51953125 C30.54258434 72.71596186 21.89188154 72.67221029 13.38671875 70.20703125 C5.67981214 67.67108943 -1.02432809 64.5266004 -6.4375 58.3125 C-6.9015625 57.81492188 -7.365625 57.31734375 -7.84375 56.8046875 C-15.09845193 48.00172601 -17.52919403 36.21349619 -16.921875 25.08203125 C-15.86142073 16.82930249 -9.50498691 0.86408972 0 0 Z " fill="#92FCC7" transform="translate(76.4375,69.6875)"/>
<path d="M0 0 C2.18038095 3.27057143 2.63246755 4.20519469 2 8 C-0.375 10.8125 -0.375 10.8125 -3 13 C-3.66 13 -4.32 13 -5 13 C-5.33 13.99 -5.66 14.98 -6 16 C-11.98689892 21.10398251 -18.90346605 24.71052073 -26 28 C-26.68191406 28.34804687 -27.36382812 28.69609375 -28.06640625 29.0546875 C-46.2408419 37.95222905 -68.22640171 38.85165829 -87.50390625 33.21484375 C-92.78582633 31.37945029 -97.90346539 29.29461129 -103 27 C-104.66348312 26.32542892 -106.32921335 25.65627295 -108 25 C-107.67 24.34 -107.34 23.68 -107 23 C-104.69 23.66 -102.38 24.32 -100 25 C-99.34 21.7 -98.68 18.4 -98 15 C-97.154375 15.33773437 -96.30875 15.67546875 -95.4375 16.0234375 C-94.303125 16.46945313 -93.16875 16.91546875 -92 17.375 C-90.88625 17.81585938 -89.7725 18.25671875 -88.625 18.7109375 C-70.79777679 25.05035955 -48.94931011 24.25568696 -31.82348633 16.23071289 C-25.97881297 13.37618217 -20.48338442 10.33043955 -15.48046875 6.12890625 C-14 5 -14 5 -11 4 C-11 3.34 -11 2.68 -11 2 C-10.34 2 -9.68 2 -9 2 C-9 1.34 -9 0.68 -9 0 C-5.85135005 -1.57432497 -3.35512575 -0.71895552 0 0 Z " fill="#93FDC8" transform="translate(163,153)"/>
<path d="M0 0 C1.57617133 3.25742076 0.9070991 5.54390315 -0.0625 8.9375 C-2.28589298 10.87400356 -4.46166414 11.73072586 -7.23046875 12.68359375 C-19.62211105 17.11621619 -28.28371071 25.7556124 -34.3046875 37.32421875 C-35.32337048 39.51401538 -36.24795908 41.66373411 -37.0625 43.9375 C-37.43117188 44.89011719 -37.79984375 45.84273437 -38.1796875 46.82421875 C-40.13993186 53.82911303 -39.01046314 61.70507185 -38.72070312 68.88671875 C-38.53213838 78.00551647 -38.53213838 78.00551647 -40.18896484 80.91699219 C-41.57421875 82.3046875 -41.57421875 82.3046875 -44.0625 83.9375 C-45.0525 83.6075 -46.0425 83.2775 -47.0625 82.9375 C-46.0725 82.4425 -46.0725 82.4425 -45.0625 81.9375 C-45.0625 81.2775 -45.0625 80.6175 -45.0625 79.9375 C-47.0425 80.4325 -47.0425 80.4325 -49.0625 80.9375 C-54.73327981 63.41884093 -52.93107272 45.4934563 -45.0625 28.9375 C-37.93433037 17.15578732 -16.60745158 -8.55535384 0 0 Z " fill="#1D30BD" transform="translate(88.0625,40.0625)"/>
<path d="M0 0 C0.33 0 0.66 0 1 0 C1.00410889 0.56807373 1.00821777 1.13614746 1.01245117 1.72143555 C1.24106006 19.81445726 4.08447633 33.56511829 16.75 47.25 C20.99574431 51.34120573 25.65770138 53.63065002 31 56 C32.051875 56.5775 33.10375 57.155 34.1875 57.75 C40.4420615 60.52980511 47.34004757 60.15494411 54.0625 60.125 C54.93455078 60.12886719 55.80660156 60.13273437 56.70507812 60.13671875 C61.27276976 60.12980324 65.48922177 59.77387385 70 59 C72.375 59.9375 72.375 59.9375 74 61 C74.17895529 64.93701632 74.25814597 67.70067295 72 71 C62.20654722 75.68686669 47.02269699 75.74733383 36.625 72.8125 C35.07340789 72.23429986 33.53168616 71.62903973 32 71 C30.60974609 70.52433594 30.60974609 70.52433594 29.19140625 70.0390625 C12.40466978 63.88319815 0.82280543 51.37282244 -7.1015625 35.62890625 C-8.05218562 32.84730035 -8.05696052 31.69333915 -7 29 C-6.34 29 -5.68 29 -5 29 C-5.33 29.99 -5.66 30.98 -6 32 C-3.67146684 31.06858674 -2.27863408 30.42226114 -0.87939453 28.30175781 C0.23347873 25.38888466 0.22586502 23.03823181 0.1953125 19.921875 C0.18886719 18.76171875 0.18242188 17.6015625 0.17578125 16.40625 C0.15064453 14.59640625 0.15064453 14.59640625 0.125 12.75 C0.11597656 11.52796875 0.10695313 10.3059375 0.09765625 9.046875 C0.07409513 6.03105218 0.04119706 3.01562508 0 0 Z " fill="#91F9C8" transform="translate(48,91)"/>
<path d="M0 0 C1.125 6.625 1.125 6.625 0 10 C0.165 10.804375 0.33 11.60875 0.5 12.4375 C1 15 1 15 0.53955078 16.81152344 C-0.1128475 19.45772172 -0.1296613 21.85278697 -0.1328125 24.578125 C-0.13410156 25.65707031 -0.13539062 26.73601562 -0.13671875 27.84765625 C-0.13285156 28.97042969 -0.12898438 30.09320313 -0.125 31.25 C-0.12886719 32.35730469 -0.13273437 33.46460938 -0.13671875 34.60546875 C-0.12969736 40.51045673 0.19867943 46.15507351 1 52 C0.5625 55 0.5625 55 0 57 C0.639375 57.2475 1.27875 57.495 1.9375 57.75 C4 59 4 59 4.75 61.125 C4.87375 62.053125 4.87375 62.053125 5 63 C3.88625 63.474375 2.7725 63.94875 1.625 64.4375 C-0.26710994 65.25306463 -2.15712709 66.07856355 -4 67 C-5.125 62.25 -5.125 62.25 -4 60 C-5.98 60.495 -5.98 60.495 -8 61 C-8.65568959 59.17016859 -9.29902213 57.3359079 -9.9375 55.5 C-10.47697266 53.96859375 -10.47697266 53.96859375 -11.02734375 52.40625 C-14.80258765 39.18531552 -15.5809189 19.11171175 -11 6 C-8.30023635 1.77468498 -5.04835797 0 0 0 Z " fill="#599BC1" transform="translate(25,71)"/>
<path d="M0 0 C0.12375 1.134375 0.2475 2.26875 0.375 3.4375 C0.58125 4.613125 0.7875 5.78875 1 7 C1.66 7.33 2.32 7.66 3 8 C2.67 8.99 2.34 9.98 2 11 C2.66 11.66 3.32 12.32 4 13 C3.5153125 13.37769531 3.030625 13.75539063 2.53125 14.14453125 C-9.62987343 24.13068453 -16.9957304 38.28156001 -22 53 C-22.66 52.34 -23.32 51.68 -24 51 C-23.835 50.195625 -23.67 49.39125 -23.5 48.5625 C-22.64354576 45.77225382 -22.64354576 45.77225382 -25 43 C-28.54518884 44.39759905 -28.54518884 44.39759905 -32 46 C-30.37540752 28.37317161 -16.3938016 13.44720574 -4 2 C-1 0 -1 0 0 0 Z " fill="#2D4ABF" transform="translate(48,29)"/>
<path d="M0 0 C3.5625 0.3125 3.5625 0.3125 5.5 1.5 C7.05045199 4.14488869 7.18491312 5.26959142 6.5625 8.3125 C5.35546875 9.875 5.35546875 9.875 3.8125 11.5625 C-2.74964916 18.8244044 -3.88247091 25.28781151 -3.67578125 34.98046875 C-3.4493251 38.14714242 -3.01966951 41.19339667 -2.4375 44.3125 C-3.0975 44.3125 -3.7575 44.3125 -4.4375 44.3125 C-4.7675 44.9725 -5.0975 45.6325 -5.4375 46.3125 C-6.0975 46.3125 -6.7575 46.3125 -7.4375 46.3125 C-9.10715451 46.63052943 -10.77428518 46.96234951 -12.4375 47.3125 C-16.55149552 37.83242338 -18.40050936 28.28456774 -15.53125 18.09375 C-12.71043286 11.65650063 -7.61254253 0.69204932 0 0 Z " fill="#1B2BBD" transform="translate(76.4375,69.6875)"/>
<path d="M0 0 C0.33 0 0.66 0 1 0 C1.00410889 0.56807373 1.00821777 1.13614746 1.01245117 1.72143555 C1.24338255 19.99826891 4.05608579 34.12613505 17.375 47.5625 C18.57587399 48.71614861 19.78149141 49.86499327 21 51 C20.67 51.66 20.34 52.32 20 53 C19.34 52.67 18.68 52.34 18 52 C15.92022703 53.22590192 15.92022703 53.22590192 14 55 C14 56.32 14 57.64 14 59 C8.11274871 58.4102402 5.9116147 55.1319701 2.21875 50.8359375 C-2.04984044 45.37995747 -5.71904086 39.57003543 -8 33 C-7.625 30.6875 -7.625 30.6875 -7 29 C-6.34 29 -5.68 29 -5 29 C-5.33 29.99 -5.66 30.98 -6 32 C-3.67146684 31.06858674 -2.27863408 30.42226114 -0.87939453 28.30175781 C0.23347873 25.38888466 0.22586502 23.03823181 0.1953125 19.921875 C0.18886719 18.76171875 0.18242188 17.6015625 0.17578125 16.40625 C0.15064453 14.59640625 0.15064453 14.59640625 0.125 12.75 C0.11597656 11.52796875 0.10695313 10.3059375 0.09765625 9.046875 C0.07409513 6.03105218 0.04119706 3.01562508 0 0 Z " fill="#5896C1" transform="translate(48,91)"/>
<path d="M0 0 C-0.625 2.375 -0.625 2.375 -2 5 C-5.0625 6.1875 -5.0625 6.1875 -8 7 C-8.33 7.66 -8.66 8.32 -9 9 C-8.34 9.33 -7.68 9.66 -7 10 C-7.33 10.33 -7.66 10.66 -8 11 C-7.34 11.33 -6.68 11.66 -6 12 C-5.67 11.34 -5.34 10.68 -5 10 C-3.02 10.66 -1.04 11.32 1 12 C0.67 11.01 0.34 10.02 0 9 C2.97 9.495 2.97 9.495 6 10 C3.09811368 12.39808661 0.58610259 13.59352525 -3 14.6875 C-8.8594994 16.68523537 -13.42203129 19.81767168 -18.37109375 23.48828125 C-21 25 -21 25 -23.34765625 24.73046875 C-24.16556641 24.36888672 -24.16556641 24.36888672 -25 24 C-25 23.34 -25 22.68 -25 22 C-25.33 22 -25.66 22 -26 22 C-26.50020029 18.87374819 -26.63420984 16.11478865 -26 13 C-20.96397911 6.61814594 -8.039825 0 0 0 Z " fill="#253BBE" transform="translate(74,16)"/>
<path d="M0 0 C0.33 1.32 0.66 2.64 1 4 C0.34 4 -0.32 4 -1 4 C-0.67 4.99 -0.34 5.98 0 7 C2.85778033 7.68493373 2.85778033 7.68493373 6 8 C6.99 7.34 7.98 6.68 9 6 C9.66 6.66 10.32 7.32 11 8 C10.62488281 8.51046875 10.24976562 9.0209375 9.86328125 9.546875 C5.54050257 15.68805177 2.69362455 22.01219138 0 29 C-0.66509553 30.66729426 -1.33123743 32.33417323 -2 34 C-2.66 33.34 -3.32 32.68 -4 32 C-3.835 31.195625 -3.67 30.39125 -3.5 29.5625 C-2.64354576 26.77225382 -2.64354576 26.77225382 -5 24 C-8.54518884 25.39759905 -8.54518884 25.39759905 -12 27 C-11.04227853 16.60872207 -5.66571854 8.4985778 0 0 Z " fill="#3D66C0" transform="translate(28,48)"/>
<path d="M0 0 C0.33 0 0.66 0 1 0 C1.0515625 1.18335937 1.103125 2.36671875 1.15625 3.5859375 C1.81095457 13.80084132 2.98867066 20.85026646 11 28 C12.31619988 29.02244592 13.64439393 30.03040732 15 31 C13.29220059 34.98486529 10.92814393 38.03592803 7 40 C0.58153382 37.23124988 -3.32115137 32.90278538 -7 27 C-7.6953125 24.71875 -7.6953125 24.71875 -8 23 C-7.2575 22.71125 -6.515 22.4225 -5.75 22.125 C-3.43260203 21.17697356 -1.22082885 20.15154089 1 19 C0.83628906 18.32582031 0.67257813 17.65164062 0.50390625 16.95703125 C-0.0875358 13.48632094 -0.09539046 10.20677876 -0.0625 6.6875 C-0.05347656 5.43324219 -0.04445313 4.17898437 -0.03515625 2.88671875 C-0.02355469 1.93410156 -0.01195313 0.98148437 0 0 Z " fill="#69B3C2" transform="translate(72,94)"/>
<path d="M0 0 C1.64244924 3.28489848 2.47059744 5.92806836 3.30078125 9.44140625 C4.21488079 12.78629562 5.34166836 16.04631568 6.5 19.3125 C6.9228125 20.50488281 7.345625 21.69726562 7.78125 22.92578125 C8.91573242 26.10003098 8.91573242 26.10003098 11 29 C11 33 11 33 9 35.0625 C8.34 35.701875 7.68 36.34125 7 37 C7 37.99 7 38.98 7 40 C3.97746102 39.67670636 2.42071927 39.43401514 0.26953125 37.21484375 C-2.95999292 32.16708881 -4.92573842 27.90843869 -6 22 C-5.01 21.67 -4.02 21.34 -3 21 C-2.67 22.98 -2.34 24.96 -2 27 C-1.21625 26.505 -0.4325 26.01 0.375 25.5 C3 24 3 24 5 24 C3.88145414 20.27385847 3.88145414 20.27385847 1 18 C0.67 12.06 0.34 6.12 0 0 Z " fill="#77CAC4" transform="translate(24,110)"/>
<path d="M0 0 C2.0625 1.0625 2.0625 1.0625 3 3 C3 6.5 3 6.5 2 10 C-1.09807387 12.58172823 -4.04535442 13.43505063 -8 14 C-8.99 12.68 -9.98 11.36 -11 10 C-10.67 9.67 -10.34 9.34 -10 9 C-10.66 8.34 -11.32 7.68 -12 7 C-11.34 6.67 -10.68 6.34 -10 6 C-11.32 5.01 -12.64 4.02 -14 3 C-8.99611382 -0.00233171 -5.69165673 -0.55983509 0 0 Z " fill="#1626BE" transform="translate(86,39)"/>
<path d="M0 0 C0.33 0 0.66 0 1 0 C1.01458252 0.589021 1.02916504 1.17804199 1.04418945 1.78491211 C1.11953764 4.50303802 1.21590384 7.22004942 1.3125 9.9375 C1.33505859 10.86369141 1.35761719 11.78988281 1.38085938 12.74414062 C1.59386494 18.26292113 2.33722008 22.88832742 4.37402344 28.03564453 C5.41090368 31.28944268 4.98129284 33.7944434 4 37 C2 38.1875 2 38.1875 0 39 C-0.80528889 41.05000871 -0.80528889 41.05000871 -1 43 C-4 42 -4 42 -5.203125 40.07421875 C-5.54859375 39.28660156 -5.8940625 38.49898437 -6.25 37.6875 C-6.60578125 36.90761719 -6.9615625 36.12773438 -7.328125 35.32421875 C-8.0711335 32.75392773 -7.88750996 31.48616571 -7 29 C-6.34 29 -5.68 29 -5 29 C-5.33 29.99 -5.66 30.98 -6 32 C-3.67146684 31.06858674 -2.27863408 30.42226114 -0.87939453 28.30175781 C0.23347873 25.38888466 0.22586502 23.03823181 0.1953125 19.921875 C0.18886719 18.76171875 0.18242188 17.6015625 0.17578125 16.40625 C0.15064453 14.59640625 0.15064453 14.59640625 0.125 12.75 C0.11597656 11.52796875 0.10695313 10.3059375 0.09765625 9.046875 C0.07409513 6.03105218 0.04119706 3.01562508 0 0 Z " fill="#5374C7" transform="translate(48,91)"/>
<path d="M0 0 C0.25 2.25 0.25 2.25 0 5 C-1.31266518 6.35368596 -2.64567325 7.68799596 -4 9 C-4 10.32 -4 11.64 -4 13 C-3.236875 12.649375 -2.47375 12.29875 -1.6875 11.9375 C1 11 1 11 4 12 C3.02079402 14.44801496 2.42031559 15.74781064 0.125 17.125 C-0.57625 17.41375 -1.2775 17.7025 -2 18 C-2.61875 18.391875 -3.2375 18.78375 -3.875 19.1875 C-6.82134214 20.31404258 -8.97903796 19.68658228 -12 19 C-12 17.68 -12 16.36 -12 15 C-11.34 15 -10.68 15 -10 15 C-10.09152344 14.28457031 -10.18304687 13.56914063 -10.27734375 12.83203125 C-9.89575446 8.93552085 -8.22831614 7.49471669 -5.5625 4.6875 C-4.32693359 3.36298828 -4.32693359 3.36298828 -3.06640625 2.01171875 C-1 0 -1 0 0 0 Z " fill="#3457BE" transform="translate(39,37)"/>
<path d="M0 0 C0.33 0 0.66 0 1 0 C1.10957031 1.22976562 1.21914062 2.45953125 1.33203125 3.7265625 C1.49156486 5.35943595 1.65175593 6.99224526 1.8125 8.625 C1.88275391 9.43324219 1.95300781 10.24148437 2.02539062 11.07421875 C2.53041031 16.04361244 3.59592709 19.54876136 6 24 C5.34682338 27.51082431 4.38955434 28.68220567 1.625 30.9375 C-1 32 -1 32 -3.125 31.625 C-5.9395798 29.18569751 -6.71252774 26.4761751 -8 23 C-7.2575 22.71125 -6.515 22.4225 -5.75 22.125 C-3.43260203 21.17697356 -1.22082885 20.15154089 1 19 C0.83628906 18.32582031 0.67257813 17.65164062 0.50390625 16.95703125 C-0.0875358 13.48632094 -0.09539046 10.20677876 -0.0625 6.6875 C-0.05347656 5.43324219 -0.04445313 4.17898437 -0.03515625 2.88671875 C-0.02355469 1.93410156 -0.01195313 0.98148437 0 0 Z " fill="#506BC6" transform="translate(72,94)"/>
<path d="M0 0 C1.17539996 0.92652701 2.34010577 1.86663387 3.5 2.8125 C4.1496875 3.33457031 4.799375 3.85664063 5.46875 4.39453125 C7 6 7 6 7 9 C6.34 8.67 5.68 8.34 5 8 C2.92022703 9.22590192 2.92022703 9.22590192 1 11 C1 12.32 1 13.64 1 15 C-1.70931419 14.84518205 -3.46584039 14.51827919 -5.4453125 12.59765625 C-6.67679642 11.10228292 -7.8429837 9.5537076 -9 8 C-8.34 7.34 -7.68 6.68 -7 6 C-6.01 6 -5.02 6 -4 6 C-4 5.34 -4 4.68 -4 4 C-3.34 4 -2.68 4 -2 4 C-2 3.34 -2 2.68 -2 2 C-1.34 2 -0.68 2 0 2 C0 1.34 0 0.68 0 0 Z " fill="#72C3C3" transform="translate(61,135)"/>
<path d="M0 0 C2 1 2 1 2.875 3 C3.8234856 5.20005805 3.8234856 5.20005805 6.125 5.75 C6.74375 5.8325 7.3625 5.915 8 6 C8 6.66 8 7.32 8 8 C8.66 8 9.32 8 10 8 C9.01 11.63 8.02 15.26 7 19 C6.01 19 5.02 19 4 19 C4.309375 17.6078125 4.309375 17.6078125 4.625 16.1875 C5.36692966 12.84826598 5.36692966 12.84826598 3 10 C-0.54518884 11.39759905 -0.54518884 11.39759905 -4 13 C-3.71682074 11.39431334 -3.42312209 9.79047953 -3.125 8.1875 C-2.96257813 7.29417969 -2.80015625 6.40085937 -2.6328125 5.48046875 C-2 3 -2 3 0 0 Z " fill="#3C6EBD" transform="translate(20,62)"/>
<path d="M0 0 C2.5 1.3125 2.5 1.3125 5 3 C5 3.99 5 4.98 5 6 C4.34 6 3.68 6 3 6 C3 6.66 3 7.32 3 8 C2.34 8 1.68 8 1 8 C1 8.66 1 9.32 1 10 C-0.98 10.33 -2.96 10.66 -5 11 C-5.99 9.68 -6.98 8.36 -8 7 C-6 5 -6 5 -3.375 4.875 C-2.59125 4.91625 -1.8075 4.9575 -1 5 C-0.67 3.35 -0.34 1.7 0 0 Z " fill="#64AFC0" transform="translate(56,131)"/>
<path d="M0 0 C1.65 0.99 3.3 1.98 5 3 C3.29220059 6.98486529 0.92814393 10.03592803 -3 12 C-5.4750171 10.88568235 -7.67883419 9.41849022 -10 8 C-7 7 -7 7 -3 7 C-2.690625 6.21625 -2.38125 5.4325 -2.0625 4.625 C-1 2 -1 2 0 0 Z " fill="#7AD9C2" transform="translate(82,122)"/>
<path d="M0 0 C2 3 2 3 1.875 6.5625 C1.58625 7.696875 1.2975 8.83125 1 10 C-1 11.1875 -1 11.1875 -3 12 C-3.80528889 14.05000871 -3.80528889 14.05000871 -4 16 C-4.99 15.67 -5.98 15.34 -7 15 C-8.1875 11.9375 -8.1875 11.9375 -9 9 C-8.01 9 -7.02 9 -6 9 C-5.67 8.01 -5.34 7.02 -5 6 C-3.35 6.33 -1.7 6.66 0 7 C-0.185625 6.401875 -0.37125 5.80375 -0.5625 5.1875 C-1 3 -1 3 0 0 Z " fill="#4C7FC1" transform="translate(51,118)"/>
<path d="M0 0 C0.66 0.66 1.32 1.32 2 2 C2.66 2 3.32 2 4 2 C4 2.99 4 3.98 4 5 C4.66 4.34 5.32 3.68 6 3 C6.33 4.32 6.66 5.64 7 7 C4.23735711 7.59732819 1.83967231 8 -1 8 C-1.33 6.68 -1.66 5.36 -2 4 C-2.33 4.66 -2.66 5.32 -3 6 C-4.98 6 -6.96 6 -9 6 C-4.38461538 0 -4.38461538 0 0 0 Z " fill="#1325B9" transform="translate(152,31)"/>
<path d="M0 0 C2.4443896 2.4443896 2.91985673 3.55383944 3 7 C0.7761796 9.79565993 -0.91100916 11.6173816 -4.3125 12.8125 C-4.869375 12.874375 -5.42625 12.93625 -6 13 C-7.32 11.02 -8.64 9.04 -10 7 C-8.72125 6.87625 -7.4425 6.7525 -6.125 6.625 C-2.65209064 6.30957601 -2.65209064 6.30957601 0 4 C0 2.68 0 1.36 0 0 Z " fill="#4E81C1" transform="translate(75,113)"/>
<path d="M0 0 C1.98 1.65 3.96 3.3 6 5 C5.67 5.66 5.34 6.32 5 7 C4.34 6.67 3.68 6.34 3 6 C0.92022703 7.22590192 0.92022703 7.22590192 -1 9 C-1 10.32 -1 11.64 -1 13 C-3.4375 12.625 -3.4375 12.625 -6 12 C-6.33 11.34 -6.66 10.68 -7 10 C-6.34 10 -5.68 10 -5 10 C-4.67 9.01 -4.34 8.02 -4 7 C-3.34 7 -2.68 7 -2 7 C-2 6.01 -2 5.02 -2 4 C-1.34 4 -0.68 4 0 4 C0 2.68 0 1.36 0 0 Z " fill="#7DD4C4" transform="translate(63,137)"/>
<path d="M0 0 C2 1 2 1 2.75 2.75 C3.08831258 5.79481322 2.50231672 7.33680218 1 10 C-1.625 11.8125 -1.625 11.8125 -4 13 C-3.71682074 11.39431334 -3.42312209 9.79047953 -3.125 8.1875 C-2.96257813 7.29417969 -2.80015625 6.40085937 -2.6328125 5.48046875 C-2 3 -2 3 0 0 Z " fill="#4879C0" transform="translate(20,62)"/>
<path d="M0 0 C0.66 1.32 1.32 2.64 2 4 C1.34 4 0.68 4 0 4 C-0.33 4.66 -0.66 5.32 -1 6 C-1.66 6 -2.32 6 -3 6 C-4.66965451 6.31802943 -6.33678518 6.64984951 -8 7 C-8.66 5.35 -9.32 3.7 -10 2 C-7.03 2 -4.06 2 -1 2 C-0.67 1.34 -0.34 0.68 0 0 Z " fill="#2A4BBE" transform="translate(72,110)"/>
<path d="M0 0 C3.24208567 0.35049575 4.61527704 0.56221181 6.8125 3.0625 C7.204375 3.701875 7.59625 4.34125 8 5 C7.01 5.66 6.02 6.32 5 7 C5 7.99 5 8.98 5 10 C4.01 9.67 3.02 9.34 2 9 C1.67 7.35 1.34 5.7 1 4 C0.34 4 -0.32 4 -1 4 C-0.67 2.68 -0.34 1.36 0 0 Z " fill="#1325B9" transform="translate(71,43)"/>
<path d="M0 0 C1.5 1.0625 1.5 1.0625 3 3 C3.2804701 6.85646386 3.18234854 10.30516081 2 14 C2.66 14 3.32 14 4 14 C4 16.64 4 19.28 4 22 C0.32351746 15.40395779 -0.33065766 7.43979742 0 0 Z " fill="#75B2C7" transform="translate(12,105)"/>
<path d="M0 0 C4.37859255 0.50522222 6.81651224 3.17827222 10 6 C9.34 7.32 8.68 8.64 8 10 C7.67 9.34 7.34 8.68 7 8 C7.33 7.34 7.66 6.68 8 6 C7.01 6.33 6.02 6.66 5 7 C3.29115995 5.37660195 1.62553283 3.70680947 0 2 C0 1.34 0 0.68 0 0 Z " fill="#2330C2" transform="translate(148,27)"/>
<path d="M0 0 C0.33 0.66 0.66 1.32 1 2 C-4.14285714 7.57142857 -4.14285714 7.57142857 -8 8 C-8 7.01 -8 6.02 -8 5 C-7.34 5 -6.68 5 -6 5 C-6 4.34 -6 3.68 -6 3 C-4.02 2.01 -2.04 1.02 0 0 Z " fill="#5392C0" transform="translate(77,118)"/>
<path d="M0 0 C1.44197868 2.88395737 1.58833581 5.82430479 2 9 C1.01 9 0.02 9 -1 9 C-1.33 9.66 -1.66 10.32 -2 11 C-2.66 11 -3.32 11 -4 11 C-3.814375 10.05125 -3.62875 9.1025 -3.4375 8.125 C-2.71313368 5.10131207 -2.71313368 5.10131207 -4 3 C-2.68 2.01 -1.36 1.02 0 0 Z " fill="#1425B9" transform="translate(83,41)"/>
<path d="M0 0 C0.33 0 0.66 0 1 0 C1.33 6.27 1.66 12.54 2 19 C1.34 19.33 0.68 19.66 0 20 C-1.41030314 13.26188501 -0.66561666 6.80977041 0 0 Z " fill="#DCE0F2" transform="translate(35,95)"/>
<path d="M0 0 C0.66 0.33 1.32 0.66 2 1 C2 1.66 2 2.32 2 3 C1.01 3.33 0.02 3.66 -1 4 C-0.67 2.68 -0.34 1.36 0 0 Z M-2 4 C-1.67 4.99 -1.34 5.98 -1 7 C-1.639375 7.28875 -2.27875 7.5775 -2.9375 7.875 C-5.15206079 8.82823451 -5.15206079 8.82823451 -6 11 C-7.32 9.68 -8.64 8.36 -10 7 C-7.69 7 -5.38 7 -3 7 C-2.67 6.01 -2.34 5.02 -2 4 Z " fill="#7CCCC5" transform="translate(82,122)"/>
<path d="M0 0 C2.00993705 4.01987409 2.55305762 6.83787308 3.125 11.25 C3.29257812 12.51328125 3.46015625 13.7765625 3.6328125 15.078125 C3.81457031 16.52445313 3.81457031 16.52445313 4 18 C3.01 18 2.02 18 1 18 C0.67 12.06 0.34 6.12 0 0 Z " fill="#75BAC5" transform="translate(24,110)"/>
<path d="M0 0 C0.99 0.99 1.98 1.98 3 3 C1.56036361 6.35915158 -0.12416589 8.71624938 -3 11 C-5.25 10.75 -5.25 10.75 -7 10 C-6.030625 9.46375 -5.06125 8.9275 -4.0625 8.375 C-0.72464389 6.27994174 -0.72464389 6.27994174 -0.125 2.75 C-0.08375 1.8425 -0.0425 0.935 0 0 Z " fill="#66A6C4" transform="translate(77,116)"/>
<path d="M0 0 C1.32 0 2.64 0 4 0 C4.1875 2.375 4.1875 2.375 4 5 C3.01 5.66 2.02 6.32 1 7 C-0.0625 4.625 -0.0625 4.625 -1 2 C-0.67 1.34 -0.34 0.68 0 0 Z " fill="#2A38C0" transform="translate(159,38)"/>
<path d="M0 0 C1.32 0.66 2.64 1.32 4 2 C1.69 3.65 -0.62 5.3 -3 7 C-3.33 5.68 -3.66 4.36 -4 3 C-2.68 2.67 -1.36 2.34 0 2 C0 1.34 0 0.68 0 0 Z " fill="#374CC3" transform="translate(56,34)"/>
<path d="M0 0 C0.99 0 1.98 0 3 0 C2.625 1.9375 2.625 1.9375 2 4 C1.01 4.495 1.01 4.495 0 5 C-0.99 6.485 -0.99 6.485 -2 8 C-2.66 8 -3.32 8 -4 8 C-2.87548273 5.0280615 -1.77706209 2.66559313 0 0 Z " fill="#2B3AC1" transform="translate(68,75)"/>
<path d="M0 0 C0.66 0.33 1.32 0.66 2 1 C1.45276317 4.37462715 0.9451 6.08235 -1 9 C-1.99 9 -2.98 9 -4 9 C-3.71125 8.443125 -3.4225 7.88625 -3.125 7.3125 C-1.9586747 4.91505355 -0.9660119 2.48403061 0 0 Z " fill="#6EC1C3" transform="translate(80,120)"/>
<path d="M0 0 C0.66 0 1.32 0 2 0 C3.35015859 4.05047576 2.62084998 6.7920168 2 11 C1.34 11 0.68 11 0 11 C0 7.37 0 3.74 0 0 Z " fill="#4D8ABE" transform="translate(13,85)"/>
<path d="M0 0 C2 1 2 1 2.75 2.75 C3.07158914 5.64430225 2.22746624 7.40065973 1 10 C0.67 9.01 0.34 8.02 0 7 C-0.33 6.34 -0.66 5.68 -1 5 C-1.33 4.34 -1.66 3.68 -2 3 C-1.34 2.01 -0.68 1.02 0 0 Z " fill="#547DC7" transform="translate(20,62)"/>
<path d="M0 0 C2.64 0.33 5.28 0.66 8 1 C8 1.66 8 2.32 8 3 C8.99 3.33 9.98 3.66 11 4 C3.57142857 3 3.57142857 3 0 2 C0 1.34 0 0.68 0 0 Z " fill="#424EC9" transform="translate(114,24)"/>
<path d="M0 0 C2.475 0.99 2.475 0.99 5 2 C5 2.99 5 3.98 5 5 C2 5 2 5 0.3125 3.5 C-0.120625 3.005 -0.55375 2.51 -1 2 C-0.67 1.34 -0.34 0.68 0 0 Z " fill="#98EFCD" transform="translate(48,169)"/>
<path d="M0 0 C0.66 0.33 1.32 0.66 2 1 C-0.31 3.64 -2.62 6.28 -5 9 C-5 4.61031544 -2.87194899 3.23094261 0 0 Z " fill="#D1D7F2" transform="translate(82,78)"/>
<path d="M0 0 C0.66 0.99 1.32 1.98 2 3 C-1.465 4.485 -1.465 4.485 -5 6 C-5 5.01 -5 4.02 -5 3 C-2.5 1.3125 -2.5 1.3125 0 0 Z " fill="#4271BF" transform="translate(74,115)"/>
<path d="M0 0 C0.33 0.99 0.66 1.98 1 3 C-0.40445835 5.2636564 -2.1967913 7.0208685 -4 9 C-4.33 8.34 -4.66 7.68 -5 7 C-3.35 4.69 -1.7 2.38 0 0 Z " fill="#DFE4F4" transform="translate(59,68)"/>
<path d="M0 0 C0.66 0 1.32 0 2 0 C2.33 1.32 2.66 2.64 3 4 C1.35 4 -0.3 4 -2 4 C-2 4.66 -2 5.32 -2 6 C-2.66 5.67 -3.32 5.34 -4 5 C-2.71937515 3.2925002 -1.38232443 1.62626404 0 0 Z " fill="#2634C0" transform="translate(52,57)"/>
<path d="M0 0 C1.32 0.33 2.64 0.66 4 1 C3.3125 2.9375 3.3125 2.9375 2 5 C-0.625 5.75 -0.625 5.75 -3 6 C-2.67 5.01 -2.34 4.02 -2 3 C-1.34 3 -0.68 3 0 3 C0 2.01 0 1.02 0 0 Z " fill="#3B47C7" transform="translate(84,46)"/>
<path d="M0 0 C4.75 0.75 4.75 0.75 7 3 C7.125 5.625 7.125 5.625 7 8 C6.938125 7.38125 6.87625 6.7625 6.8125 6.125 C6.18259554 3.72882071 6.18259554 3.72882071 3.5 2.875 C2.675 2.58625 1.85 2.2975 1 2 C0.67 1.34 0.34 0.68 0 0 Z " fill="#3641C4" transform="translate(82,39)"/>
<path d="M0 0 C0.66 0.33 1.32 0.66 2 1 C1.01 1.33 0.02 1.66 -1 2 C-1 2.99 -1 3.98 -1 5 C-2.65 4.67 -4.3 4.34 -6 4 C-3.94766315 1.7522025 -2.99332739 0.9977758 0 0 Z " fill="#434FC9" transform="translate(78,39)"/>
<path d="M0 0 C0.33 0.66 0.66 1.32 1 2 C-2.96 1.67 -6.92 1.34 -11 1 C-11 0.67 -11 0.34 -11 0 C-3.19354839 -1.35111663 -3.19354839 -1.35111663 0 0 Z " fill="#C9CDF0" transform="translate(120,12)"/>
<path d="M0 0 C0.99 0.33 1.98 0.66 3 1 C2.1875 2.9375 2.1875 2.9375 1 5 C0.01 5.33 -0.98 5.66 -2 6 C-1.34 4.02 -0.68 2.04 0 0 Z " fill="#7FE4C6" transform="translate(84,124)"/>
<path d="M0 0 C0.66 0.33 1.32 0.66 2 1 C0.515 4.96 0.515 4.96 -1 9 C-1.66 8.34 -2.32 7.68 -3 7 C-2.01 4.69 -1.02 2.38 0 0 Z " fill="#4E7FC1" transform="translate(27,73)"/>
<path d="M0 0 C0.33 0.66 0.66 1.32 1 2 C1.66 2 2.32 2 3 2 C2 5 2 5 -0.0625 6.1875 C-0.701875 6.455625 -1.34125 6.72375 -2 7 C-2 5.68 -2 4.36 -2 3 C-1.34 3 -0.68 3 0 3 C0 2.01 0 1.02 0 0 Z " fill="#4573C0" transform="translate(27,68)"/>
<path d="M0 0 C2.97 0.495 2.97 0.495 6 1 C3.06171403 3.50298434 0.82097239 4.46930939 -3 5 C-3 4.34 -3 3.68 -3 3 C-1.68 3 -0.36 3 1 3 C0.67 2.01 0.34 1.02 0 0 Z " fill="#3244C5" transform="translate(74,25)"/>
</svg>
