<?xml version="1.0" encoding="UTF-8"?>
<svg version="1.1" xmlns="http://www.w3.org/2000/svg" width="224" height="224">
<path d="M0 0 C73.92 0 147.84 0 224 0 C224 73.92 224 147.84 224 224 C150.08 224 76.16 224 0 224 C0 150.08 0 76.16 0 0 Z " fill="#0095FE" transform="translate(0,0)"/>
<path d="M0 0 C1.093125 0.0825 2.18625 0.165 3.3125 0.25 C3.9725 1.57 4.6325 2.89 5.3125 4.25 C6.570625 4.188125 7.82875 4.12625 9.125 4.0625 C11.70719981 4.08081347 13.05701965 4.11838891 15.375 5.3125 C16.86488061 8.3915866 15.98732518 10.99856958 15.3125 14.25 C17.7875 15.24 17.7875 15.24 20.3125 16.25 C20.3125 18.89 20.3125 21.53 20.3125 24.25 C18.6625 24.91 17.0125 25.57 15.3125 26.25 C15.56 27.1575 15.8075 28.065 16.0625 29 C16.3125 32.25 16.3125 32.25 14.8125 34.625 C11.51603294 36.76770359 9.16603546 36.5464258 5.3125 36.25 C4.6525 37.57 3.9925 38.89 3.3125 40.25 C0 40.5 0 40.5 -3.6875 40.25 C-5.625 38.25 -5.625 38.25 -6.6875 36.25 C-7.574375 36.53875 -8.46125 36.8275 -9.375 37.125 C-12.6875 37.25 -12.6875 37.25 -15.625 34.625 C-17.6875 31.25 -17.6875 31.25 -17.5 28.375 C-17.231875 27.67375 -16.96375 26.9725 -16.6875 26.25 C-18.0075 25.59 -19.3275 24.93 -20.6875 24.25 C-20.6875 21.61 -20.6875 18.97 -20.6875 16.25 C-19.3675 15.59 -18.0475 14.93 -16.6875 14.25 C-16.97625 13.363125 -17.265 12.47625 -17.5625 11.5625 C-17.6875 8.25 -17.6875 8.25 -15.0625 5.3125 C-11.6875 3.25 -11.6875 3.25 -8.8125 3.4375 C-8.11125 3.705625 -7.41 3.97375 -6.6875 4.25 C-6.336875 3.59 -5.98625 2.93 -5.625 2.25 C-3.6875 0.25 -3.6875 0.25 0 0 Z " fill="#F3FBFC" transform="translate(71.6875,91.75)"/>
<path d="M0 0 C3.3 0 6.6 0 10 0 C10 11.88 10 23.76 10 36 C3.750625 36.1546875 3.750625 36.1546875 -2.625 36.3125 C-3.92775879 36.35802002 -5.23051758 36.40354004 -6.57275391 36.45043945 C-16.13692804 36.5651977 -16.13692804 36.5651977 -19.7109375 33.66796875 C-24.2686541 28.35581783 -24.48207312 25.02305492 -24.390625 18.1796875 C-23.82161835 13.54797336 -22.49352044 12.00605247 -19 9 C-15.67098317 6.78065545 -14.51206363 6.72870102 -10.625 6.75 C-9.68914063 6.74484375 -8.75328125 6.7396875 -7.7890625 6.734375 C-4.85670238 7.01364739 -2.66595075 7.77850984 0 9 C0 6.03 0 3.06 0 0 Z " fill="#1A1E1F" transform="translate(36,94)"/>
<path d="M0 0 C1.02867187 -0.02320312 1.02867187 -0.02320312 2.078125 -0.046875 C7.16362229 -0.00805441 10.09621527 1.31032223 14 4.5 C15.27861615 7.05723229 15.11336609 8.86737102 15.09765625 11.7265625 C15.09443359 12.7578125 15.09121094 13.7890625 15.08789062 14.8515625 C15.07951172 15.93179688 15.07113281 17.01203125 15.0625 18.125 C15.05798828 19.21296875 15.05347656 20.3009375 15.04882812 21.421875 C15.03701776 24.11463789 15.02054778 26.80729188 15 29.5 C14.08476562 29.48839844 13.16953125 29.47679687 12.2265625 29.46484375 C11.03804687 29.45582031 9.84953125 29.44679687 8.625 29.4375 C7.44164062 29.42589844 6.25828125 29.41429687 5.0390625 29.40234375 C2.08078479 29.28533407 2.08078479 29.28533407 0 30.5 C-6.14549022 31.01212418 -9.03105639 30.49939364 -14 26.5 C-15 25.5 -15 25.5 -15.3125 21.6875 C-15.28363496 18.46616111 -15.17080745 17.72204968 -13.125 15.0625 C-9.24051874 12.20626378 -6.68490884 12.39377356 -1.875 12.4375 C-0.59367188 12.44652344 0.68765625 12.45554687 2.0078125 12.46484375 C2.99523437 12.47644531 3.98265625 12.48804687 5 12.5 C4.67 11.18 4.34 9.86 4 8.5 C1.69 8.5 -0.62 8.5 -3 8.5 C-3.33 9.16 -3.66 9.82 -4 10.5 C-7.63 10.5 -11.26 10.5 -15 10.5 C-14.875 7.75 -14.875 7.75 -14 4.5 C-9.50850218 0.68154008 -5.73747023 -0.12941662 0 0 Z " fill="#1B1C1A" transform="translate(197,100.5)"/>
<path d="M0 0 C3.3 0 6.6 0 10 0 C10 5.61 10 11.22 10 17 C14.03101116 16.48574693 14.03101116 16.48574693 15.28125 13.93359375 C15.6834375 13.10988281 16.085625 12.28617188 16.5 11.4375 C18.0078125 8.96875 18.0078125 8.96875 20 7 C24.09903817 6.20325601 27.87669934 6.45956739 32 7 C30.2452957 10.83467086 27.83087129 13.77890843 25.14453125 17 C23.83116342 18.8859424 23.83116342 18.8859424 24.0703125 20.86328125 C25.39044474 23.89736668 27.18376785 26.46714886 29.0625 29.1875 C33 34.91036907 33 34.91036907 33 36 C28.52754089 36.59721264 24.44433962 36.88570469 20 36 C17.01930584 33.0775432 15.40355577 29.90944758 14 26 C14 25.34 14 24.68 14 24 C12.68 24 11.36 24 10 24 C10 27.96 10 31.92 10 36 C6.7 36 3.4 36 0 36 C0 24.12 0 12.24 0 0 Z " fill="#191E1F" transform="translate(96,94)"/>
<path d="M0 0 C3.63 0 7.26 0 11 0 C11.33 6.93 11.66 13.86 12 21 C15.465 20.505 15.465 20.505 19 20 C20.11823815 17.76352369 20.19396061 16.35108471 20.31640625 13.8671875 C20.35830078 13.06152344 20.40019531 12.25585938 20.44335938 11.42578125 C20.48267578 10.58402344 20.52199219 9.74226563 20.5625 8.875 C20.60568359 8.02550781 20.64886719 7.17601563 20.69335938 6.30078125 C20.79954236 4.20071777 20.90028497 2.10038052 21 0 C24.63 0 28.26 0 32 0 C32 9.57 32 19.14 32 29 C28.37 29 24.74 29 21 29 C21 28.34 21 27.68 21 27 C20.45214844 27.32097656 19.90429688 27.64195312 19.33984375 27.97265625 C15.07015916 29.84732578 10.55869947 29.68887014 6 29 C2.875 26.5625 2.875 26.5625 1 24 C0.67 23.67 0.34 23.34 0 23 C-0.08713831 21.29227642 -0.10700007 19.58101351 -0.09765625 17.87109375 C-0.09443359 16.83662109 -0.09121094 15.80214844 -0.08789062 14.73632812 C-0.07951172 13.64771484 -0.07113281 12.55910156 -0.0625 11.4375 C-0.05798828 10.34501953 -0.05347656 9.25253906 -0.04882812 8.12695312 C-0.0369984 5.41794568 -0.01906231 2.7089662 0 0 Z " fill="#192327" transform="translate(146,101)"/>
<path d="M0 0 C3.34139976 0.02999461 4.22721051 0.29795352 7.1875 2.1875 C10.34695358 5.4426946 10.58421243 7.73663238 10.54296875 12.2734375 C10.08745033 15.44384567 8.49684343 17.1317402 6.25 19.3125 C2.69998488 21.08750756 -1.23562075 20.7331609 -5 19.6875 C-8.45602517 16.97205165 -9.56024482 13.47475048 -10.25 9.25 C-9.5762454 5.29169172 -7.7459671 3.87003289 -4.75 1.3125 C-3.75 0.3125 -3.75 0.3125 0 0 Z " fill="#0696FA" transform="translate(70.75,101.6875)"/>
<path d="M0 0 C1.09570312 0.00902344 2.19140625 0.01804687 3.3203125 0.02734375 C4.16335937 0.03894531 5.00640625 0.05054687 5.875 0.0625 C5.875 1.3825 5.875 2.7025 5.875 4.0625 C6.865 4.0625 7.855 4.0625 8.875 4.0625 C8.875 5.7125 8.875 7.3625 8.875 9.0625 C4.7544254 11.06035435 1.42305635 11.24085515 -3.125 11.0625 C-3.125 11.7225 -3.125 12.3825 -3.125 13.0625 C-2.135 13.0625 -1.145 13.0625 -0.125 13.0625 C-0.125 13.7225 -0.125 14.3825 -0.125 15.0625 C1.525 15.3925 3.175 15.7225 4.875 16.0625 C2.875 18.0625 2.875 18.0625 -0.875 18.4375 C-5.58796299 18.34306905 -8.79127823 16.39622177 -12.125 13.0625 C-12.71759259 5.83287037 -12.71759259 5.83287037 -10.25 2.625 C-6.63000466 -0.03676128 -4.47133091 -0.04756735 0 0 Z " fill="#182125" transform="translate(194.125,112.9375)"/>
<path d="M0 0 C0.71929687 0.00966797 1.43859375 0.01933594 2.1796875 0.02929688 C7.40881849 0.14190925 7.40881849 0.14190925 9.75 1.3125 C9.42 3.6225 9.09 5.9325 8.75 8.3125 C7.76 7.9825 6.77 7.6525 5.75 7.3125 C5.42 8.6325 5.09 9.9525 4.75 11.3125 C4.42 10.3225 4.09 9.3325 3.75 8.3125 C1.44 8.3125 -0.87 8.3125 -3.25 8.3125 C-3.58 8.9725 -3.91 9.6325 -4.25 10.3125 C-7.88 10.3125 -11.51 10.3125 -15.25 10.3125 C-15.125 7.5625 -15.125 7.5625 -14.25 4.3125 C-9.50230713 0.22948413 -5.96088941 -0.24564105 0 0 Z " fill="#191F21" transform="translate(197.25,100.6875)"/>
<path d="M0 0 C2.4375 1.625 2.4375 1.625 4 4 C4.61195145 7.6717087 4.48706506 9.28813568 2.375 12.375 C-0.71186432 14.48706506 -2.3282913 14.61195145 -6 14 C-8.375 12.4375 -8.375 12.4375 -10 10 C-10.42519574 6.53769185 -10.63902633 4.1652833 -8.9375 1.0625 C-5.8347167 -0.63902633 -3.46230815 -0.42519574 0 0 Z " fill="#0691EF" transform="translate(32,109)"/>
<path d="M0 0 C1.09570312 0.00902344 2.19140625 0.01804687 3.3203125 0.02734375 C4.16335937 0.03894531 5.00640625 0.05054687 5.875 0.0625 C5.875 1.3825 5.875 2.7025 5.875 4.0625 C6.865 4.0625 7.855 4.0625 8.875 4.0625 C8.875 5.7125 8.875 7.3625 8.875 9.0625 C4.56750393 11.28151313 1.54043739 11.35845483 -3.125 10.0625 C-5.47385769 7.18325508 -6.125 5.78777067 -6.125 2.0625 C-6.785 1.7325 -7.445 1.4025 -8.125 1.0625 C-5.36047967 -0.31976016 -3.0788637 -0.03275387 0 0 Z " fill="#18262E" transform="translate(194.125,112.9375)"/>
<path d="M0 0 C3.3 0 6.6 0 10 0 C10 3.3 10 6.6 10 10 C6.7 10 3.4 10 0 10 C0 6.7 0 3.4 0 0 Z " fill="#172C39" transform="translate(133,120)"/>
<path d="M0 0 C2.31 0 4.62 0 7 0 C7.33 1.65 7.66 3.3 8 5 C4.37 5 0.74 5 -3 5 C-3 4.34 -3 3.68 -3 3 C-2.34 3 -1.68 3 -1 3 C-0.67 2.01 -0.34 1.02 0 0 Z " fill="#0B8AE0" transform="translate(194,108)"/>
<path d="M0 0 C1.23556641 0.01740234 1.23556641 0.01740234 2.49609375 0.03515625 C3.32238281 0.04417969 4.14867187 0.05320312 5 0.0625 C5.63808594 0.07410156 6.27617187 0.08570312 6.93359375 0.09765625 C6.16015625 2.05078125 6.16015625 2.05078125 4.93359375 4.09765625 C1.30859375 4.84765625 1.30859375 4.84765625 -2.06640625 5.09765625 C-2.62890625 3.16015625 -2.62890625 3.16015625 -3.06640625 1.09765625 C-2.06640625 0.09765625 -2.06640625 0.09765625 0 0 Z " fill="#0988DF" transform="translate(195.06640625,118.90234375)"/>
<path d="M0 0 C0.66 0 1.32 0 2 0 C2.38218767 1.65614657 2.71395102 3.32457024 3 5 C2.67 5.33 2.34 5.66 2 6 C4.97 6.495 4.97 6.495 8 7 C8 7.33 8 7.66 8 8 C4.37 8 0.74 8 -3 8 C-2.25 2.25 -2.25 2.25 0 0 Z " fill="#153244" transform="translate(185,103)"/>
<path d="M0 0 C2.05078125 0.03255208 4.1015625 0.06510417 6.15234375 0.09765625 C6.15234375 0.42765625 6.15234375 0.75765625 6.15234375 1.09765625 C4.57453125 1.19046875 4.57453125 1.19046875 2.96484375 1.28515625 C-1.56194116 2.2498809 -3.04578881 3.47171015 -5.84765625 7.09765625 C-6.72004483 9.77556521 -6.72004483 9.77556521 -6.84765625 12.09765625 C-7.17765625 12.09765625 -7.50765625 12.09765625 -7.84765625 12.09765625 C-8.16015625 9.41015625 -8.16015625 9.41015625 -7.84765625 6.09765625 C-5.41015625 3.28515625 -5.41015625 3.28515625 -2.84765625 1.09765625 C-1.84765625 0.09765625 -1.84765625 0.09765625 0 0 Z " fill="#2E9FE5" transform="translate(68.84765625,101.90234375)"/>
<path d="M0 0 C2.64 0.33 5.28 0.66 8 1 C7.67 2.32 7.34 3.64 7 5 C4.36 4.01 1.72 3.02 -1 2 C-0.67 1.34 -0.34 0.68 0 0 Z " fill="#192429" transform="translate(196,125)"/>
</svg>
